<svg xmlns="http://www.w3.org/2000/svg" viewBox="0 0 235 122">
  <g fill="#fff" aria-label="RENTAL ZONE" font-family="Open Sans" font-size="16.22800064" font-weight="700" letter-spacing="-.46799999" word-spacing="2.60100007">
    <path d="M85.557369 94.335927h.792383q1.164803 0 1.719471-.388267.554668-.388268.554668-1.22027 0-.824078-.570516-1.172726-.562592-.348649-1.751166-.348649h-.74484zm0 1.996805V100.778h-2.456387V89.193363h3.375551q2.361301 0 3.494408.863697 1.133108.855773 1.133108 2.60694 0 1.022173-.562592 1.82248-.562592.792383-1.592689 1.244041 2.614863 3.906448 3.407246 5.047479h-2.725797l-2.765416-4.445268zM100.01786 100.778h-6.671862V89.193363h6.671862v2.012652h-4.215475v2.543549h3.922295v2.012652h-3.922295V98.7495h4.215475zM112.25176 100.778h-3.12199l-5.03955-8.763754h-.0713q.15055 2.321681.15055 3.31216V100.778h-2.1949V89.193363h3.09822l5.03163 8.676592h.0555q-.11886-2.258291-.11886-3.193303v-5.483289h2.21075zM119.16084 100.778h-2.45638v-9.54029h-3.14576v-2.044347h8.7479v2.044347h-3.14576zM130.72914 100.778l-.83993-2.757492h-4.2234l-.83992 2.757492h-2.64656l4.08869-11.63218h3.00314l4.10454 11.63218zm-1.42629-4.817688q-1.1648-3.747971-1.31535-4.239248-.14263-.491277-.20602-.776535-.26149 1.01425-1.49761 5.015783zM134.35776 100.778V89.193363h2.45638V98.7495h4.69883v2.0285zM156.94959 100.778h-8.62113v-1.59269l5.5546-7.963447h-5.40405v-2.0285h8.32002v1.584765l-5.54668 7.971372h5.69724zM168.85861 94.969834q0 2.876349-1.42629 4.421496-1.42629 1.54515-4.0887 1.54515-2.6624 0-4.08869-1.54515-1.42629-1.545147-1.42629-4.437344 0-2.892197 1.42629-4.413572 1.43421-1.529299 4.10454-1.529299t4.08077 1.537222q1.41837 1.537223 1.41837 4.421497zm-8.45473 0q0 1.941338.73692 2.923892.73692.982555 2.20282.982555 2.93974 0 2.93974-3.906447 0-3.914372-2.92389-3.914372-1.46591 0-2.21075.990479-.74484.982555-.74484 2.923893zM181.08459 100.778h-3.12199l-5.03956-8.763754h-.0713q.15055 2.321681.15055 3.31216V100.778h-2.1949V89.193363h3.09822l5.03163 8.676592h.0555q-.11885-2.258291-.11885-3.193303v-5.483289h2.21075zM190.19649 100.778h-6.67186V89.193363h6.67186v2.012652h-4.21548v2.543549h3.9223v2.012652h-3.9223V98.7495h4.21548z"/>
  </g>
  <g fill="#fff" aria-label="SHIP" font-family="Eurostile LT Std" font-size="81.13899994" font-stretch="condensed" font-weight="700" letter-spacing="0" word-spacing="0">
    <path d="M58.911106 66.402915H46.4157v4.86834c0 11.684016 2.677587 15.091854 17.282607 15.091854 11.440599 0 16.633495-2.515309 16.633495-16.633495 0-15.091854-1.62278-16.146661-15.984383-19.879055-3.975811-.973668-4.949479-1.62278-4.949479-5.355174v-3.894672c0-2.758726.243417-4.219228 3.813533-4.219228 3.407838 0 3.813533.405695 3.813533 5.598591v2.839865h12.008572v-7.059093c0-8.195039-3.894672-11.440599-15.578688-11.440599-12.819962 0-17.03919 1.379363-17.03919 15.091854v3.570116c0 10.466931 2.028475 12.98224 12.495406 15.497549 7.059093 1.703919 7.951622 1.947336 7.951622 6.004286v6.328842c0 2.515309-.973668 3.488977-3.975811 3.488977-3.975811 0-3.975811-1.62278-3.975811-5.67973zM88.121146 85.713997h13.469074V60.479768h7.78934v25.234229h13.46908V26.969361h-13.46908v22.962337h-7.78934V26.969361H88.121146zM132.51305 85.713997h13.46908V26.969361h-13.46908zM155.7898 85.713997h13.46908V68.999363h4.54378c12.08971 0 16.39008-3.488977 16.39008-17.526024V41.249825c0-10.710348-5.27403-14.280464-15.01071-14.280464H155.7898zm13.46908-27.262704V37.517431h3.89467c2.35303 0 3.08328.567973 3.08328 2.515309v14.118186c0 3.24556-1.0548 4.300367-3.00214 4.300367z"/>
  </g>
  <g fill="#fff" aria-label="imperial" font-family="Trajan Pro 3" font-size="16.93300056" letter-spacing="0" word-spacing="0">
    <path d="M80.030613 18.838347c0 1.269975 0 2.472218-.08467 3.081806-.0508.406392-.101598.745052-.389459.812784-.135464.03387-.321727.0508-.406392.0508-.152397 0-.220129.0508-.220129.118531 0 .08467.118531.118531.270928.118531.474124 0 1.473171-.0508 1.52397-.0508.08467 0 1.066779.0508 1.930362.0508.16933 0 .237062-.0508.237062-.118531 0-.06773-.03387-.101598-.186263-.118531-.06773 0-.423325-.01693-.643454-.06773-.440258-.101598-.50799-.287861-.575722-.778918-.08467-.609588-.06773-1.794898-.06773-3.098739V16.2984c0-2.235156-.01693-2.624615.01693-3.081806.03387-.491057.08467-.745052.575722-.812784.118531-.01693.203196-.01693.304794-.03387.135464-.01693.186263-.0508.186263-.118531 0-.08466-.08467-.118531-.253995-.118531-.474124 0-1.456238.0508-1.52397.0508-.0508 0-1.01598-.0508-1.540903-.0508-.186263 0-.253995.03387-.253995.118531 0 .06773.06773.101598.186263.118531.101598.01693.220129.01693.389459.0508.355593.06773.457191.321727.491057.778918.03387.457191.03387.863583.03387 3.098739zM96.78714 12.353008c-.01693-.270928-.06773-.423325-.16933-.423325-.101598 0-.16933.101598-.253995.287861L92.0459 20.988838l-4.538044-8.788227c-.118531-.220129-.16933-.270928-.253995-.270928-.08467 0-.152397.135464-.186263.423325l-1.134511 9.296217c-.08467.67732-.237062 1.083712-.643454 1.117578-.186263.01693-.203196.01693-.321727.01693-.152397 0-.220129.06773-.220129.101598 0 .118531.101598.135464.253995.135464.423325 0 1.134511-.0508 1.303841-.0508.135464 0 .863583.0508 1.405439.0508.186263 0 .287861-.01693.287861-.135464 0-.03387-.03387-.08467-.16933-.101598-.16933-.01693-.287861-.01693-.474124-.0508-.33866-.06773-.423325-.321727-.423325-.50799 0-.253995 0-.406392.01693-.643454l.626521-6.519205c.135464.355593 1.794898 3.640595 1.896496 3.843791.101598.152397 1.456238 2.861677 1.727166 3.352734.321727.575722.406392.728119.50799.728119.152397 0 .203196-.152397.524923-.812784l3.589796-7.28119.745052 7.247324c.03387.237062-.01693.440258-.101598.474124-.08467.03387-.152397.101598-.152397.152397 0 .08467.135464.118531.50799.152397.541856.03387 2.370621.101598 2.675415.101598.186263 0 .253995-.0508.253995-.135464 0-.08467-.152397-.101598-.220129-.101598-.237062-.01693-.575722-.0508-.863583-.118531-.660388-.152397-.761986-1.100645-.812785-1.507037zM102.33825 18.838347c0 1.269975 0 2.489151-.0847 3.098739-.0508.406392-.13547.745052-.44026.795851-.13546.03387-.32173.06773-.44026.06773-.0847 0-.11853.03387-.11853.08467 0 .101598.0847.135464.23706.135464.47413 0 1.47317-.0508 1.49011-.0508.0847 0 1.03291.0508 1.91343.0508.16933 0 .23706-.0508.23706-.135464 0-.0508-.0339-.08467-.1016-.08467-.13546 0-.47412-.03387-.67732-.06773-.45719-.0508-.54186-.389459-.59265-.795851-.0677-.609588-.0677-1.828764-.0677-3.132605v-5.858818c0-.118531.0169-.237062.1016-.270928.1016-.0508.35559-.08466.57572-.08466.3048 0 1.26998-.08467 2.0997.795851.77891.812784.72811 1.828764.72811 2.048893 0 1.490104-1.11757 2.404486-2.45528 2.404486-.32173 0-.42333 0-.42333.135464 0 .06773.0847.101598.1524.101598.0847.01693.254.01693.32173.01693 2.11662 0 3.67446-1.371573 3.67446-3.251136 0-.948248-.42333-1.608635-.74505-1.896496-.23706-.203196-.91438-.812784-2.77701-.812784-.69426 0-1.55784.0508-1.91343.0508-.1016 0-1.03292-.0508-1.76104-.0508-.15239 0-.23706.03387-.23706.135464 0 .0508.0677.08467.1016.08467.13546 0 .40639.01693.52492.03387.47413.101598.60959.372526.64346.812784.0339.457191.0339.761985.0339 3.098739zM111.81306 18.838347c0 1.286908-.0169 1.981161-.0339 2.556883-.0339 1.049846-.23707 1.269975-.54186 1.337707-.11853.03387-.23706.0508-.33866.0508-.0847 0-.1524.0508-.1524.118531 0 .08467.0847.118531.23706.118531.4064 0 .72812-.0508 1.11758-.0508.62652 0 1.40544.03387 1.9981.0508.59265 0 1.06678.03387 2.18435.03387.55879 0 .67732-.03387.74506-.372526.0508-.287861.18626-1.35464.18626-1.473171 0-.101598 0-.253995-.1016-.253995-.0677 0-.11853.06773-.1524.237062-.13546.626521-.25399.965181-.76198 1.117578-.42333.118531-.96518.101598-1.28691.101598-.57572 0-.98211-.03387-1.23611-.152397-.35559-.152397-.44026-.474124-.47412-1.100645-.0169-.287861 0-1.777965 0-2.302888v-1.236109c0-.06773.0169-.118531.11853-.118531.27093 0 1.6425.03387 2.03196.06773.64345.0508.74505.287861.81278.50799.0339.135464.0508.304794.0508.406392 0 .118531.0169.220129.1016.220129.0677 0 .1016-.0508.11853-.186263.0169-.220129.0169-.558789.0677-1.032913.0508-.491057.11853-.812784.11853-.897449 0-.08467-.0339-.101598-.0677-.101598-.0677 0-.11853.03387-.18626.135464-.13547.186263-.38946.237062-.77892.253995-.35559.03387-2.08276.0508-2.28595.0508-.0847 0-.1016-.06773-.1016-.16933v-3.843791c0-.101598.0339-.135464.0847-.135464.0339 0 1.71024.01693 1.93036.03387.84665.0508.99905.16933 1.10065.50799.0508.118531.1016.287861.11853.541856 0 .118531.0339.186263.11853.186263.0847 0 .11853-.101598.11853-.253995.0169-.321727.0339-.592655.0508-.880516.0339-.423325.13547-.660387.13547-.761985 0-.08467-.0339-.118531-.0677-.118531-.0677 0-.0847.01693-.18626.0508-.13546.0508-.32173.06773-.66039.08467-.33866.01693-3.35273.01693-3.4374.01693-.94824-.01693-1.40543-.0508-1.74409-.0508-.16933 0-.254.03387-.254.135464 0 .0508.1016.101598.22013.101598.13546 0 .30479.01693.40639.03387.49106.101598.60959.33866.64346.812784.0339.457191.0339.863583.0339 3.081806zM120.66029 18.838347c0 1.269975.0169 2.658481-.0677 3.268069-.0508.406392-.1524.592655-.44026.643454-.13546.03387-.254.03387-.37253.03387-.10159 0-.20319.0508-.20319.101598 0 .101598.0677.135464.23706.135464.45719 0 1.20224-.0508 1.47317-.0508.0677 0 1.01598.0508 1.8965.0508.16933 0 .23706-.0508.23706-.135464 0-.0508-.0677-.101598-.22013-.101598-.13546 0-.32173-.01693-.49106-.03387-.55879-.06773-.60959-.406392-.66038-.812784-.0847-.609588-.0847-1.845697-.0847-3.200337v-.237062c0-.06773.0169-.08467.0847-.08467l1.74409.01693c.1016 0 .13547.03387.2032.101598.28786.355593.96518 1.269975 1.62557 2.082759.88051 1.134511 1.3885 1.896496 2.09969 2.20129.37253.152397.74505.203196 1.5409.203196h1.18531c.23707 0 .3048-.03387.3048-.118531 0-.06773-.0508-.118531-.18626-.118531-.0508 0-.4064-.01693-.52493-.03387-.47412-.06773-.98211-.203196-1.7949-1.032913-.86358-.897449-1.87956-2.150491-3.11567-3.674461 1.33771-1.083712 1.7949-2.269022 1.7949-3.200337 0-1.151444-.69425-1.828764-1.01598-2.065826-.79585-.558789-1.82876-.643454-2.77701-.643454-.47413 0-1.62557.0508-1.77797.0508-.0339 0-1.06678-.0508-1.7949-.0508-.15239 0-.20319.0508-.20319.118531 0 .06773.0677.101598.18626.101598.13547 0 .3048.01693.40639.03387.52493.101598.64346.355593.67732.812784.0339.457191.0339.863583.0339 3.098739zm1.30384-5.943483c0-.08466.0508-.135464.1016-.152397.20319-.0508.55879-.08466.98211-.08466 1.50704 0 2.48915 1.01598 2.48915 2.861677 0 1.083712-.33866 1.828764-.84665 2.150491-.35559.237062-.77891.253995-1.13451.253995-.60959 0-1.28691-.101598-1.50703-.220129-.0677-.03387-.0847-.118531-.0847-.203196z"/>
    <path d="M131.65642 18.838347c0 1.269975 0 2.472218-.0847 3.081806-.0508.406392-.1016.745052-.38946.812784-.13547.03387-.32173.0508-.40639.0508-.1524 0-.22013.0508-.22013.118531 0 .08467.11853.118531.27093.118531.47412 0 1.47317-.0508 1.52397-.0508.0847 0 1.06677.0508 1.93036.0508.16933 0 .23706-.0508.23706-.118531 0-.06773-.0339-.101598-.18626-.118531-.0677 0-.42333-.01693-.64346-.06773-.44026-.101598-.50799-.287861-.57572-.778918-.0847-.609588-.0677-1.794898-.0677-3.098739V16.2984c0-2.235156-.0169-2.624615.0169-3.081806.0339-.491057.0847-.745052.57572-.812784.11853-.01693.2032-.01693.3048-.03387.13546-.01693.18626-.0508.18626-.118531 0-.08466-.0847-.118531-.25399-.118531-.47413 0-1.45624.0508-1.52397.0508-.0508 0-1.01598-.0508-1.54091-.0508-.18626 0-.25399.03387-.25399.118531 0 .06773.0677.101598.18626.118531.1016.01693.22013.01693.38946.0508.35559.06773.45719.321727.49106.778918.0339.457191.0339.863583.0339 3.098739zM142.13081 18.889146c.0677 0 .10159.03387.13546.08467l1.33771 3.403533c.1016.253995 0 .33866-.0677.372526-.0677.01693-.11853.06773-.11853.118531 0 .08467.1016.101598.42333.118531 1.13451.03387 2.40449.03387 2.57382.03387.18626 0 .25399-.03387.25399-.118531 0-.08466-.0847-.118531-.2032-.118531-.11853 0-.35559 0-.57572-.08467-.23706-.08467-.72812-.304794-1.28691-1.642501-.89744-2.116625-3.20033-8.026242-3.4374-8.585031-.18626-.474124-.25399-.541856-.33866-.541856-.11853 0-.16933.08466-.35559.575722l-3.3866 8.923691c-.28786.711186-.57572 1.269975-1.30384 1.337707-.1016.01693-.25399.01693-.33866.01693-.13546 0-.2032.0508-.2032.118531 0 .08467.0847.118531.27093.118531.71119 0 1.45624-.0508 1.62557-.0508.18626 0 .96518.0508 1.33771.0508.11853 0 .25399-.03387.25399-.118531 0-.06773-.0508-.118531-.20319-.118531h-.11853c-.37253 0-.55879-.135464-.55879-.440258 0-.270928.11853-.728119.28786-1.202243l.74505-2.116625c.0339-.08466.0847-.135464.16933-.135464zm-2.91248-.592655c-.0339 0-.0677-.03387-.0339-.101598l1.26998-3.742193c.0847-.237062.1016-.237062.18626 0l1.33771 3.742193c.0169.0508.0169.101598-.0508.101598zM150.11022 16.298397c0-2.235156-.0169-2.607682.0169-3.064873.0339-.491057.13547-.761985.60959-.829717.16933-.01693.33866-.03387.45719-.03387.1016 0 .18627-.0508.18627-.118531 0-.06773-.0508-.118531-.22013-.118531-.47413 0-1.50704.0508-1.7441.0508-.0339 0-1.04985-.0508-1.76103-.0508-.16933 0-.254.03387-.254.118531 0 .06773.0677.118531.18626.118531.13547 0 .32173 0 .42333.01693.57572.06773.64345.372526.67732.84665.0339.457191.0339.829717.0339 3.064873v2.53995c0 1.303841.0339 2.472218-.0677 3.115672-.0508.406392-.15239.745052-.44026.795851-.13546.03387-.27092.03387-.40639.03387-.13546 0-.18626.0508-.18626.101598 0 .101598.1016.135464.27093.135464.59265 0 .93131-.0508 1.4901-.0508 1.6933 0 2.96328.08466 4.11472.08466.81278 0 .79585-.08466.89745-.423325.1016-.389459.2032-1.35464.2032-1.52397 0-.16933-.0339-.220129-.1016-.220129-.0847 0-.11853.06773-.13547.203196-.0339.253995-.15239.592655-.32172.84665-.37253.474124-1.04985.474124-1.7949.474124-1.16838 0-1.50704-.101598-1.77797-.33866-.28786-.270928-.35559-1.253042-.35559-3.200337z"/>
  </g>
  <rect width="32.096691" height="11.831862" x="46" y="89.168137" fill="#fdcb12" rx="27.37641" ry=".0000118"/>
</svg>